<svg xmlns="http://www.w3.org/2000/svg" viewBox="0 0 24 24">
  <path d="M12.000024,0 C8.7409955,0 8.332343,0.013814 7.0524155,0.0722135 C5.7751555,0.1304695 4.9028325,0.3333435 4.139544,0.6300085 C3.350438,0.936629 2.681227,1.3469485 2.014064,2.014064 C1.3469485,2.681227 0.936629,3.350438 0.6300085,4.139544 C0.3333435,4.9028325 0.1304695,5.7751555 0.0722135,7.0524155 C0.013814,8.332343 0,8.7409955 0,12.000024 C0,15.2590045 0.013814,15.667657 0.0722135,16.9475845 C0.1304695,18.2248445 0.3333435,19.0971675 0.6300085,19.860456 C0.936629,20.649562 1.3469485,21.318773 2.014064,21.985936 C2.681227,22.6530515 3.350438,23.063371 4.139544,23.3700395 C4.9028325,23.6666565 5.7751555,23.8695305 7.0524155,23.9277865 C8.332343,23.986186 8.7409955,24 12.000024,24 C15.2590045,24 15.667657,23.986186 16.9475845,23.9277865 C18.2248445,23.8695305 19.0971675,23.6666565 19.860456,23.3700395 C20.649562,23.063371 21.318773,22.6530515 21.985936,21.985936 C22.6530515,21.318773 23.063371,20.649562 23.3700395,19.860456 C23.6666565,19.0971675 23.8695305,18.2248445 23.9277865,16.9475845 C23.986186,15.667657 24,15.2590045 24,12.000024 C24,8.7409955 23.986186,8.332343 23.9277865,7.0524155 C23.8695305,5.7751555 23.6666565,4.9028325 23.3700395,4.139544 C23.063371,3.350438 22.6530515,2.681227 21.985936,2.014064 C21.318773,1.3469485 20.649562,0.936629 19.860456,0.6300085 C19.0971675,0.3333435 18.2248445,0.1304695 16.9475845,0.0722135 C15.667657,0.013814 15.2590045,0 12.000024,0 L12.000024,0 Z M12.000024,2.1621585 C15.20413,2.1621585 15.583678,2.1744005 16.84903,2.232133 C18.019018,2.285483 18.654409,2.480973 19.0772565,2.6453105 C19.6373855,2.8629985 20.037131,3.123033 20.457025,3.542975 C20.876967,3.962869 21.1370015,4.3626145 21.3546895,4.9227435 C21.519027,5.345591 21.714517,5.980982 21.767867,7.15097 C21.8255995,8.416322 21.8378415,8.79587 21.8378415,12.000024 C21.8378415,15.20413 21.8255995,15.583678 21.767867,16.84903 C21.714517,18.019018 21.519027,18.654409 21.3546895,19.0772565 C21.1370015,19.6373855 20.876967,20.037131 20.457025,20.457025 C20.037131,20.876967 19.6373855,21.1370015 19.0772565,21.3546895 C18.654409,21.519027 18.019018,21.714517 16.84903,21.767867 C15.5838685,21.8255995 15.204368,21.8378415 12.000024,21.8378415 C8.795632,21.8378415 8.416179,21.8255995 7.15097,21.767867 C5.980982,21.714517 5.345591,21.519027 4.9227435,21.3546895 C4.3626145,21.1370015 3.962869,20.876967 3.542975,20.457025 C3.1230805,20.037131 2.8629985,19.6373855 2.6453105,19.0772565 C2.480973,18.654409 2.285483,18.019018 2.232133,16.84903 C2.1744005,15.583678 2.1621585,15.20413 2.1621585,12.000024 C2.1621585,8.79587 2.1744005,8.416322 2.232133,7.15097 C2.285483,5.980982 2.480973,5.345591 2.6453105,4.9227435 C2.8629985,4.3626145 3.123033,3.962869 3.542975,3.542975 C3.962869,3.123033 4.3626145,2.8629985 4.9227435,2.6453105 C5.345591,2.480973 5.980982,2.285483 7.15097,2.232133 C8.416322,2.1744005 8.79587,2.1621585 12.000024,2.1621585 L12.000024,2.1621585 Z M12.000024,5.8378415 C8.596712,5.8378415 5.8378415,8.596712 5.8378415,12.000024 C5.8378415,15.403288 8.596712,18.1621585 12.000024,18.1621585 C15.403288,18.1621585 18.1621585,15.403288 18.1621585,12.000024 C18.1621585,8.596712 15.403288,5.8378415 12.000024,5.8378415 L12.000024,5.8378415 Z M12.000024,16 C9.7908505,16 8,14.2091495 8,12.000024 C8,9.7908505 9.7908505,8 12.000024,8 C14.2091495,8 16,9.7908505 16,12.000024 C16,14.2091495 14.2091495,16 12.000024,16 L12.000024,16 Z M19.845642,5.594384 C19.845642,6.3896825 19.2009145,7.034362 18.405616,7.034362 C17.610365,7.034362 16.965638,6.3896825 16.965638,5.594384 C16.965638,4.7990855 17.610365,4.154358 18.405616,4.154358 C19.2009145,4.154358 19.845642,4.7990855 19.845642,5.594384 L19.845642,5.594384 Z"/>
</svg>
