<svg xmlns="http://www.w3.org/2000/svg" viewBox="0 0 38.99 28.76"><defs><style>.cls-1{fill:#231f20;}</style></defs><title>Asset 2</title><g id="Layer_2" data-name="Layer 2"><g id="Layer_1-2" data-name="Layer 1"><path id="brand" class="cls-1" d="M28.27,0V.64a9.36,9.36,0,0,1,2.54.81,3.42,3.42,0,0,1,1.45,1.27,3.5,3.5,0,0,1,.46,1.87,8.2,8.2,0,0,1-.81,3.18l-1.16,2.65H20.57L17.19,2.79A1.89,1.89,0,0,1,18.63,1,9,9,0,0,1,21,.64V0H7.83V.64A5.83,5.83,0,0,1,10.2,1.69,6.69,6.69,0,0,1,11.89,4l.92,1.87v0L6.28,20.68a22.23,22.23,0,0,1-2.93,5.15A7.52,7.52,0,0,1,0,28.16v.6H10.73v-.67a8.32,8.32,0,0,1-2.54-.78A3.64,3.64,0,0,1,6.74,26a3.59,3.59,0,0,1-.46-1.87A8.06,8.06,0,0,1,7.09,21l1.16-2.65H18.42L21.81,26a1.89,1.89,0,0,1-1.45,1.76,8,8,0,0,1-2.4.35v.67h13.2v-.67a5.8,5.8,0,0,1-2.36-1,7.05,7.05,0,0,1-1.69-2.29l-.92-1.87v0L32.71,8.08a22.23,22.23,0,0,1,2.93-5.15A7.53,7.53,0,0,1,39,.6V0ZM8.61,17.47,13.27,6.81,18,17.47Zm17.11,4.48-.25.56-5-11.22h9.88Z"/></g></g></svg>