<svg xmlns="http://www.w3.org/2000/svg" viewBox="0 0 355.85 29.43"><defs><style>.cls-1{fill:#231f20;}</style></defs><title>Asset 1</title><g id="Layer_2" data-name="Layer 2"><g id="Layer_1-2" data-name="Layer 1"><g id="logo"><path id="n" class="cls-1" d="M346,.56V1.2a7.15,7.15,0,0,1,3.07,1.06,4.38,4.38,0,0,1,1.73,2.15A10.12,10.12,0,0,1,351.33,8V22.2L333.86,3.53l-.35-.39a6.4,6.4,0,0,1-.42-.53c-.21-.25-.35-.42-.42-.49A13.39,13.39,0,0,1,331.57.56h-8V1.2a6,6,0,0,1,2,1A19.56,19.56,0,0,1,328,4.41V19.23c0,1.16,0,2.12-.11,2.89a9.34,9.34,0,0,1-.46,2.12,5.9,5.9,0,0,1-3.71,3.88v.64h10.8v-.64A6.32,6.32,0,0,1,330,25.27a6.92,6.92,0,0,1-.88-2.4,21,21,0,0,1-.28-3.74V5.26l22.69,24.17h.64V8a11.06,11.06,0,0,1,.74-4.8,4.42,4.42,0,0,1,3-2V.56Z"/><path id="a" class="cls-1" d="M319.68,27.07A6.69,6.69,0,0,1,318,24.77l-.92-1.87-.11-.21-.11-.21c0-.07,0-.11-.07-.11L306.83,0h-.53l-9.14,20.68a22.23,22.23,0,0,1-2.93,5.15,7.53,7.53,0,0,1-3.35,2.33v.6h10.73v-.64a9.78,9.78,0,0,1-2.54-.81A3.64,3.64,0,0,1,297.62,26a3.5,3.5,0,0,1-.46-1.87A8.2,8.2,0,0,1,298,21l1.16-2.65H309.8l2.29,5.22a6.8,6.8,0,0,1,.64,2.22,2,2,0,0,1-1.48,1.94,9,9,0,0,1-2.4.39v.64H322v-.64A5.83,5.83,0,0,1,319.68,27.07Zm-20.18-9.6L304.4,6.25l5,11.22Z"/><path id="m" class="cls-1" d="M286.79,26.82a5.25,5.25,0,0,1-1.24-3c-.11-.71-.18-1.16-.21-1.31a3.67,3.67,0,0,0-.07-.53L283.54,6.67l-.07-.53a9.58,9.58,0,0,1,0-1,3.63,3.63,0,0,1,.92-2.72,5.26,5.26,0,0,1,3-1.2V.56h-10A5.14,5.14,0,0,1,278.25,3a8.11,8.11,0,0,1-.81,2.86l-6.6,15.42-8-15.88a7.9,7.9,0,0,1-1.06-3.11,4.58,4.58,0,0,1,.39-1.48.54.54,0,0,0,.11-.25h-10V1.2a5,5,0,0,1,2.54.71A5.48,5.48,0,0,1,256.62,4l-1.31,14.89a19.94,19.94,0,0,1-1,5.08,7.44,7.44,0,0,1-1.8,2.51,7.07,7.07,0,0,1-2.65,1.62v.64H261.2v-.64a6.42,6.42,0,0,1-4-2.26A7.51,7.51,0,0,1,256,21.24c0-.71,0-1.45.11-2.19l1.24-14,11.26,22.48h.53l9.42-22.37,2,17.64a13.21,13.21,0,0,1,.14,1.69,2.68,2.68,0,0,1-1,2.22,7.42,7.42,0,0,1-3.18,1.41v.64h13.13v-.64A4.71,4.71,0,0,1,286.79,26.82Z"/><path id="t" class="cls-1" d="M247.94.56H221.12l-.67,7.69h.67A11.44,11.44,0,0,1,224,3.18a6.06,6.06,0,0,1,4.27-1.84,4,4,0,0,1,2,.46A2.71,2.71,0,0,1,231.56,3a5.78,5.78,0,0,1,.56,3V22.48a11.36,11.36,0,0,1-.21,2.51,3,3,0,0,1-.78,1.45,6.33,6.33,0,0,1-3.92,1.69v.64H241.8v-.64a6.76,6.76,0,0,1-3.67-1.45,3.47,3.47,0,0,1-1-1.52,9.91,9.91,0,0,1-.25-2.68V6a6.48,6.48,0,0,1,.42-2.72,3.15,3.15,0,0,1,1.31-1.41,4.47,4.47,0,0,1,2.12-.49,5.56,5.56,0,0,1,3,.85,8,8,0,0,1,2.51,2.36,13.29,13.29,0,0,1,1.69,3.71h.64Z"/><path id="l" class="cls-1" d="M220.13,20.18a37.62,37.62,0,0,1-2.89,3.39,20.29,20.29,0,0,1-2.79,2.36,10.38,10.38,0,0,1-2.72,1.38,8.75,8.75,0,0,1-2.72.42h-.42c-1.73,0-2.93-.42-3.53-1.2a3.19,3.19,0,0,1-.64-1.45,14.54,14.54,0,0,1-.18-2.47V6.85a11.22,11.22,0,0,1,.21-2.47,3.19,3.19,0,0,1,.67-1.48,5.59,5.59,0,0,1,3.6-1.69V.56h-13.3V1.2a5.06,5.06,0,0,1,3.07,1.48,3.32,3.32,0,0,1,.74,1.45,12.46,12.46,0,0,1,.21,2.72V22.48c0,2-.25,3.28-.78,4a4.9,4.9,0,0,1-3.25,1.69v.64h22.87l2.47-8.58Z"/><path id="a-2" data-name="a" class="cls-1" d="M191.55,27.07a6.69,6.69,0,0,1-1.69-2.29l-.92-1.87-.11-.21-.11-.21c0-.07,0-.11-.07-.11L178.7,0h-.53L169,20.68a22.23,22.23,0,0,1-2.93,5.15,7.53,7.53,0,0,1-3.35,2.33v.6h10.73v-.64a9.36,9.36,0,0,1-2.54-.81A3.64,3.64,0,0,1,169.49,26a3.5,3.5,0,0,1-.46-1.87,8.2,8.2,0,0,1,.81-3.18L171,18.35h10.66L184,23.57a6.8,6.8,0,0,1,.64,2.22,2,2,0,0,1-1.48,1.94,9,9,0,0,1-2.4.39v.64h13.2v-.64A5.83,5.83,0,0,1,191.55,27.07Zm-20.18-9.6,4.91-11.22,5,11.22Z"/><path id="e" class="cls-1" d="M144.72,20.33l-.18.25a25.32,25.32,0,0,1-5.47,5.4,9.28,9.28,0,0,1-5.36,1.76H131.8a6.21,6.21,0,0,1-2.68-.46,2.41,2.41,0,0,1-1.34-1.52,10,10,0,0,1-.39-3.14V13.69h2.82a10.86,10.86,0,0,1,3.39.42,3.7,3.7,0,0,1,1.94,1.55,9.37,9.37,0,0,1,1.13,3.14h.6V8.36h-.6a5.52,5.52,0,0,1-2,3.53,8.07,8.07,0,0,1-4.55,1h-2.75v-7a4.66,4.66,0,0,1,1.13-3.49,5.57,5.57,0,0,1,3.85-1.06h1.16A8.54,8.54,0,0,1,139,3a10.14,10.14,0,0,1,3.18,5.26h.67L142.11.56H118.57V1.2a5.06,5.06,0,0,1,3.07,1.48,3.32,3.32,0,0,1,.74,1.45,12.46,12.46,0,0,1,.21,2.72V22.48c0,2-.25,3.28-.78,4a4.9,4.9,0,0,1-3.25,1.69v.64H143l2.43-8.43Z"/><path id="l-2" data-name="l" class="cls-1" d="M117.55,20.18a37.6,37.6,0,0,1-2.93,3.39,18.4,18.4,0,0,1-2.79,2.36,10.2,10.2,0,0,1-2.68,1.38,8.92,8.92,0,0,1-2.72.42H106c-1.76,0-2.93-.42-3.56-1.2a3.58,3.58,0,0,1-.6-1.45,11.6,11.6,0,0,1-.18-2.47V6.85a11.6,11.6,0,0,1,.18-2.47,3.23,3.23,0,0,1,.71-1.48,5.4,5.4,0,0,1,3.56-1.69V.56H92.81V1.2a4.87,4.87,0,0,1,3.07,1.48,3,3,0,0,1,.78,1.45,12.46,12.46,0,0,1,.21,2.72V22.48c0,2-.28,3.28-.81,4a4.82,4.82,0,0,1-3.25,1.69v.64h22.87l2.51-8.58Z"/><path id="e-2" data-name="e" class="cls-1" d="M91,20.33l-.14.25a24.65,24.65,0,0,1-5.5,5.4A9.18,9.18,0,0,1,80,27.74H78.13a6.21,6.21,0,0,1-2.68-.46,2.41,2.41,0,0,1-1.34-1.52,10,10,0,0,1-.39-3.14V13.69h2.82a11,11,0,0,1,3.39.42,3.7,3.7,0,0,1,1.94,1.55A8.71,8.71,0,0,1,83,18.81h.64V8.36H83A5.35,5.35,0,0,1,81,11.89a8.07,8.07,0,0,1-4.55,1H73.72v-7a4.66,4.66,0,0,1,1.13-3.49c.74-.71,2-1.06,3.85-1.06h1.13A8.65,8.65,0,0,1,85.36,3a10.14,10.14,0,0,1,3.18,5.26h.67L88.43.56H64.9V1.2A5.06,5.06,0,0,1,68,2.68a3.32,3.32,0,0,1,.74,1.45,12.46,12.46,0,0,1,.21,2.72V22.48c0,2-.25,3.28-.78,4a4.9,4.9,0,0,1-3.25,1.69v.64H89.31l2.43-8.43Z"/><path id="d" class="cls-1" d="M61.3,8.79a13.24,13.24,0,0,0-3-4.52A13.76,13.76,0,0,0,53.6,1.34a17.12,17.12,0,0,0-6-1c-.85,0-2.15.07-3.88.21-1.91.18-3.63.25-5.26.25-.88,0-1.73,0-2.54-.07L33.52.6a7.3,7.3,0,0,0-.81,0V1.2a5.06,5.06,0,0,1,3.07,1.48,3.46,3.46,0,0,1,.78,1.52,16,16,0,0,1,.18,2.65V22.48c0,2-.25,3.28-.78,4a4.9,4.9,0,0,1-3.25,1.69l-.07.64h.53L36,28.55c1.06-.07,2-.07,2.93-.07a35.88,35.88,0,0,1,3.85.18c1.91.18,3.25.25,4.09.25a19,19,0,0,0,6.35-1A13.9,13.9,0,0,0,58.12,25,12.75,12.75,0,0,0,61.3,20.4a15.55,15.55,0,0,0,1.09-5.82A14.83,14.83,0,0,0,61.3,8.79Zm-15.1,19a5.63,5.63,0,0,1-2.65-.6A3.44,3.44,0,0,1,42,25.48a11.32,11.32,0,0,1-.49-3.88l0-16a4.51,4.51,0,0,1,1.16-3.42A5.12,5.12,0,0,1,46.3,1.13a9.6,9.6,0,0,1,5.54,1.69,11.68,11.68,0,0,1,3.92,4.69,16.14,16.14,0,0,1,1.38,6.78,17.83,17.83,0,0,1-.78,5.4A12.89,12.89,0,0,1,54.06,24a9.89,9.89,0,0,1-3.49,2.82A9.7,9.7,0,0,1,46.19,27.81Z"/><path id="a-3" data-name="a" class="cls-1" d="M28.76,27.07a6.69,6.69,0,0,1-1.69-2.29l-.92-1.87L26,22.69a.5.5,0,0,1-.07-.21.44.44,0,0,0-.07-.11L16,0h-.53L6.28,20.68a22.12,22.12,0,0,1-3,5.15A7.43,7.43,0,0,1,0,28.16v.6H10.73v-.64a9,9,0,0,1-2.54-.81A3.42,3.42,0,0,1,6.74,26a3.51,3.51,0,0,1-.49-1.87A8.36,8.36,0,0,1,7.09,21l1.13-2.65H18.88l2.29,5.22a6.26,6.26,0,0,1,.67,2.22,2,2,0,0,1-1.48,1.94,9.56,9.56,0,0,1-2.4.39v.64h13.2v-.64A6,6,0,0,1,28.76,27.07ZM8.61,17.47,13.52,6.25l5,11.22Z"/></g></g></g></svg>